<svg id="visual" viewBox="0 0 675 900" width="675" height="900" xmlns="http://www.w3.org/2000/svg" xmlns:xlink="http://www.w3.org/1999/xlink" version="1.1"><g stroke-width="1" stroke-linejoin="bevel"><path d="M289.3 450L289.3 360L192.9 450Z" fill="#1a3da6" stroke="#1a3da6"></path><path d="M289.3 360L192.9 360L192.9 450Z" fill="#1a3da6" stroke="#1a3da6"></path><path d="M289.3 360L289.3 270L192.9 360Z" fill="#123793" stroke="#123793"></path><path d="M192.9 450L289.3 540L289.3 450Z" fill="#0f348a" stroke="#0f348a"></path><path d="M289.3 270L192.9 270L192.9 360Z" fill="#4f64c3" stroke="#4f64c3"></path><path d="M192.9 450L192.9 540L289.3 540Z" fill="#4f64c3" stroke="#4f64c3"></path><path d="M385.7 540L385.7 450L289.3 450Z" fill="#3952b9" stroke="#3952b9"></path><path d="M289.3 450L385.7 360L289.3 360Z" fill="#445bbe" stroke="#445bbe"></path><path d="M289.3 360L385.7 270L289.3 270Z" fill="#0f348a" stroke="#0f348a"></path><path d="M385.7 450L385.7 360L289.3 450Z" fill="#163a9c" stroke="#163a9c"></path><path d="M96.4 360L96.4 450L192.9 360Z" fill="#1e40af" stroke="#1e40af"></path><path d="M192.9 360L96.4 450L192.9 450Z" fill="#1a3da6" stroke="#1a3da6"></path><path d="M192.9 450L96.4 450L192.9 540Z" fill="#1a3da6" stroke="#1a3da6"></path><path d="M192.9 270L96.4 360L192.9 360Z" fill="#3952b9" stroke="#3952b9"></path><path d="M289.3 540L385.7 540L289.3 450Z" fill="#4f64c3" stroke="#4f64c3"></path><path d="M385.7 360L385.7 270L289.3 360Z" fill="#2d49b4" stroke="#2d49b4"></path><path d="M192.9 270L96.4 270L96.4 360Z" fill="#2d49b4" stroke="#2d49b4"></path><path d="M96.4 450L96.4 540L192.9 540Z" fill="#3952b9" stroke="#3952b9"></path><path d="M385.7 180L289.3 180L289.3 270Z" fill="#163a9c" stroke="#163a9c"></path><path d="M289.3 270L289.3 180L192.9 270Z" fill="#1a3da6" stroke="#1a3da6"></path><path d="M192.9 270L192.9 180L96.4 270Z" fill="#0f348a" stroke="#0f348a"></path><path d="M192.9 630L289.3 630L192.9 540Z" fill="#596dc8" stroke="#596dc8"></path><path d="M192.9 540L289.3 630L289.3 540Z" fill="#4f64c3" stroke="#4f64c3"></path><path d="M289.3 540L385.7 630L385.7 540Z" fill="#3952b9" stroke="#3952b9"></path><path d="M96.4 540L192.9 630L192.9 540Z" fill="#1e40af" stroke="#1e40af"></path><path d="M289.3 180L192.9 180L192.9 270Z" fill="#1e40af" stroke="#1e40af"></path><path d="M482.1 540L482.1 450L385.7 450Z" fill="#445bbe" stroke="#445bbe"></path><path d="M385.7 450L482.1 360L385.7 360Z" fill="#445bbe" stroke="#445bbe"></path><path d="M385.7 360L482.1 270L385.7 270Z" fill="#445bbe" stroke="#445bbe"></path><path d="M96.4 360L0 450L96.4 450Z" fill="#163a9c" stroke="#163a9c"></path><path d="M96.4 450L0 450L96.4 540Z" fill="#1a3da6" stroke="#1a3da6"></path><path d="M0 360L0 450L96.4 360Z" fill="#1a3da6" stroke="#1a3da6"></path><path d="M482.1 450L482.1 360L385.7 450Z" fill="#1a3da6" stroke="#1a3da6"></path><path d="M96.4 270L0 360L96.4 360Z" fill="#4f64c3" stroke="#4f64c3"></path><path d="M482.1 180L385.7 180L385.7 270Z" fill="#1a3da6" stroke="#1a3da6"></path><path d="M385.7 270L385.7 180L289.3 270Z" fill="#3952b9" stroke="#3952b9"></path><path d="M289.3 630L385.7 630L289.3 540Z" fill="#445bbe" stroke="#445bbe"></path><path d="M385.7 540L482.1 540L385.7 450Z" fill="#1e40af" stroke="#1e40af"></path><path d="M192.9 180L96.4 180L96.4 270Z" fill="#445bbe" stroke="#445bbe"></path><path d="M96.4 270L0 270L0 360Z" fill="#0d3181" stroke="#0d3181"></path><path d="M0 540L96.4 630L96.4 540Z" fill="#0f348a" stroke="#0f348a"></path><path d="M96.4 540L96.4 630L192.9 630Z" fill="#0d3181" stroke="#0d3181"></path><path d="M0 450L0 540L96.4 540Z" fill="#1e40af" stroke="#1e40af"></path><path d="M482.1 630L482.1 540L385.7 540Z" fill="#1a3da6" stroke="#1a3da6"></path><path d="M482.1 360L482.1 270L385.7 360Z" fill="#0f348a" stroke="#0f348a"></path><path d="M96.4 180L0 270L96.4 270Z" fill="#1a3da6" stroke="#1a3da6"></path><path d="M289.3 180L289.3 90L192.9 180Z" fill="#1a3da6" stroke="#1a3da6"></path><path d="M192.9 180L192.9 90L96.4 180Z" fill="#0d3181" stroke="#0d3181"></path><path d="M385.7 90L289.3 90L289.3 180Z" fill="#4f64c3" stroke="#4f64c3"></path><path d="M192.9 630L192.9 720L289.3 630Z" fill="#163a9c" stroke="#163a9c"></path><path d="M289.3 630L385.7 720L385.7 630Z" fill="#123793" stroke="#123793"></path><path d="M96.4 630L192.9 720L192.9 630Z" fill="#4f64c3" stroke="#4f64c3"></path><path d="M192.9 720L289.3 720L289.3 630Z" fill="#1a3da6" stroke="#1a3da6"></path><path d="M289.3 90L192.9 90L192.9 180Z" fill="#4f64c3" stroke="#4f64c3"></path><path d="M0 540L0 630L96.4 630Z" fill="#3952b9" stroke="#3952b9"></path><path d="M96.4 630L96.4 720L192.9 720Z" fill="#4f64c3" stroke="#4f64c3"></path><path d="M482.1 270L482.1 180L385.7 270Z" fill="#4f64c3" stroke="#4f64c3"></path><path d="M385.7 180L385.7 90L289.3 180Z" fill="#1e40af" stroke="#1e40af"></path><path d="M96.4 90L0 180L96.4 180Z" fill="#1a3da6" stroke="#1a3da6"></path><path d="M96.4 180L0 180L0 270Z" fill="#0d3181" stroke="#0d3181"></path><path d="M482.1 720L482.1 630L385.7 630Z" fill="#596dc8" stroke="#596dc8"></path><path d="M385.7 630L482.1 630L385.7 540Z" fill="#3952b9" stroke="#3952b9"></path><path d="M482.1 360L578.6 360L482.1 270Z" fill="#445bbe" stroke="#445bbe"></path><path d="M482.1 270L578.6 270L482.1 180Z" fill="#0d3181" stroke="#0d3181"></path><path d="M482.1 450L578.6 360L482.1 360Z" fill="#2d49b4" stroke="#2d49b4"></path><path d="M578.6 450L578.6 360L482.1 450Z" fill="#1a3da6" stroke="#1a3da6"></path><path d="M578.6 450L482.1 450L482.1 540Z" fill="#1a3da6" stroke="#1a3da6"></path><path d="M578.6 540L578.6 450L482.1 540Z" fill="#1a3da6" stroke="#1a3da6"></path><path d="M482.1 90L385.7 90L385.7 180Z" fill="#123793" stroke="#123793"></path><path d="M289.3 720L385.7 720L289.3 630Z" fill="#0d3181" stroke="#0d3181"></path><path d="M192.9 90L96.4 90L96.4 180Z" fill="#123793" stroke="#123793"></path><path d="M0 630L96.4 720L96.4 630Z" fill="#596dc8" stroke="#596dc8"></path><path d="M578.6 360L578.6 270L482.1 270Z" fill="#596dc8" stroke="#596dc8"></path><path d="M482.1 630L578.6 540L482.1 540Z" fill="#4f64c3" stroke="#4f64c3"></path><path d="M0 630L0 720L96.4 720Z" fill="#123793" stroke="#123793"></path><path d="M385.7 720L482.1 720L385.7 630Z" fill="#2d49b4" stroke="#2d49b4"></path><path d="M482.1 630L578.6 630L578.6 540Z" fill="#3952b9" stroke="#3952b9"></path><path d="M578.6 180L482.1 90L482.1 180Z" fill="#3952b9" stroke="#3952b9"></path><path d="M482.1 180L482.1 90L385.7 180Z" fill="#596dc8" stroke="#596dc8"></path><path d="M96.4 90L0 90L0 180Z" fill="#2d49b4" stroke="#2d49b4"></path><path d="M578.6 270L578.6 180L482.1 180Z" fill="#596dc8" stroke="#596dc8"></path><path d="M482.1 720L578.6 630L482.1 630Z" fill="#1e40af" stroke="#1e40af"></path><path d="M289.3 90L192.9 0L192.9 90Z" fill="#4f64c3" stroke="#4f64c3"></path><path d="M192.9 90L192.9 0L96.4 90Z" fill="#3952b9" stroke="#3952b9"></path><path d="M96.4 90L96.4 0L0 90Z" fill="#596dc8" stroke="#596dc8"></path><path d="M289.3 0L192.9 0L289.3 90Z" fill="#123793" stroke="#123793"></path><path d="M289.3 0L289.3 90L385.7 0Z" fill="#0f348a" stroke="#0f348a"></path><path d="M385.7 0L289.3 90L385.7 90Z" fill="#4f64c3" stroke="#4f64c3"></path><path d="M192.9 720L192.9 810L289.3 720Z" fill="#123793" stroke="#123793"></path><path d="M289.3 720L385.7 810L385.7 720Z" fill="#163a9c" stroke="#163a9c"></path><path d="M385.7 720L482.1 810L482.1 720Z" fill="#445bbe" stroke="#445bbe"></path><path d="M96.4 720L192.9 810L192.9 720Z" fill="#123793" stroke="#123793"></path><path d="M96.4 810L192.9 810L96.4 720Z" fill="#0f348a" stroke="#0f348a"></path><path d="M192.9 810L289.3 810L289.3 720Z" fill="#1e40af" stroke="#1e40af"></path><path d="M192.9 0L96.4 0L96.4 90Z" fill="#163a9c" stroke="#163a9c"></path><path d="M0 720L96.4 810L96.4 720Z" fill="#596dc8" stroke="#596dc8"></path><path d="M289.3 810L385.7 810L289.3 720Z" fill="#4f64c3" stroke="#4f64c3"></path><path d="M482.1 0L385.7 0L385.7 90Z" fill="#1e40af" stroke="#1e40af"></path><path d="M675 540L578.6 450L578.6 540Z" fill="#4f64c3" stroke="#4f64c3"></path><path d="M675 540L675 450L578.6 450Z" fill="#0f348a" stroke="#0f348a"></path><path d="M578.6 450L675 360L578.6 360Z" fill="#0d3181" stroke="#0d3181"></path><path d="M578.6 360L675 270L578.6 270Z" fill="#0d3181" stroke="#0d3181"></path><path d="M578.6 270L675 180L578.6 180Z" fill="#123793" stroke="#123793"></path><path d="M675 450L675 360L578.6 450Z" fill="#2d49b4" stroke="#2d49b4"></path><path d="M675 630L675 540L578.6 540Z" fill="#1e40af" stroke="#1e40af"></path><path d="M675 360L675 270L578.6 360Z" fill="#4f64c3" stroke="#4f64c3"></path><path d="M482.1 720L578.6 720L578.6 630Z" fill="#3952b9" stroke="#3952b9"></path><path d="M578.6 630L675 630L578.6 540Z" fill="#1a3da6" stroke="#1a3da6"></path><path d="M482.1 810L578.6 720L482.1 720Z" fill="#1a3da6" stroke="#1a3da6"></path><path d="M578.6 180L578.6 90L482.1 90Z" fill="#1a3da6" stroke="#1a3da6"></path><path d="M482.1 90L482.1 0L385.7 90Z" fill="#0f348a" stroke="#0f348a"></path><path d="M675 90L578.6 90L578.6 180Z" fill="#596dc8" stroke="#596dc8"></path><path d="M385.7 810L482.1 810L385.7 720Z" fill="#0d3181" stroke="#0d3181"></path><path d="M0 720L0 810L96.4 810Z" fill="#3952b9" stroke="#3952b9"></path><path d="M96.4 0L0 0L0 90Z" fill="#1e40af" stroke="#1e40af"></path><path d="M578.6 90L482.1 0L482.1 90Z" fill="#0f348a" stroke="#0f348a"></path><path d="M675 720L675 630L578.6 630Z" fill="#596dc8" stroke="#596dc8"></path><path d="M675 270L675 180L578.6 270Z" fill="#163a9c" stroke="#163a9c"></path><path d="M192.9 810L192.9 900L289.3 810Z" fill="#163a9c" stroke="#163a9c"></path><path d="M289.3 810L385.7 900L385.7 810Z" fill="#1e40af" stroke="#1e40af"></path><path d="M385.7 810L482.1 900L482.1 810Z" fill="#2d49b4" stroke="#2d49b4"></path><path d="M96.4 810L192.9 900L192.9 810Z" fill="#3952b9" stroke="#3952b9"></path><path d="M96.4 900L192.9 900L96.4 810Z" fill="#123793" stroke="#123793"></path><path d="M192.9 900L289.3 900L289.3 810Z" fill="#0d3181" stroke="#0d3181"></path><path d="M0 810L96.4 900L96.4 810Z" fill="#2d49b4" stroke="#2d49b4"></path><path d="M289.3 900L385.7 900L289.3 810Z" fill="#1e40af" stroke="#1e40af"></path><path d="M675 0L578.6 0L578.6 90Z" fill="#2d49b4" stroke="#2d49b4"></path><path d="M578.6 90L578.6 0L482.1 0Z" fill="#163a9c" stroke="#163a9c"></path><path d="M482.1 900L578.6 810L482.1 810Z" fill="#2d49b4" stroke="#2d49b4"></path><path d="M482.1 810L578.6 810L578.6 720Z" fill="#0f348a" stroke="#0f348a"></path><path d="M578.6 720L675 720L578.6 630Z" fill="#596dc8" stroke="#596dc8"></path><path d="M675 810L675 720L578.6 720Z" fill="#163a9c" stroke="#163a9c"></path><path d="M675 180L675 90L578.6 180Z" fill="#0d3181" stroke="#0d3181"></path><path d="M0 810L0 900L96.4 900Z" fill="#445bbe" stroke="#445bbe"></path><path d="M385.7 900L482.1 900L385.7 810Z" fill="#163a9c" stroke="#163a9c"></path><path d="M675 90L675 0L578.6 90Z" fill="#123793" stroke="#123793"></path><path d="M675 900L675 810L578.6 810Z" fill="#1e40af" stroke="#1e40af"></path><path d="M578.6 810L675 810L578.6 720Z" fill="#123793" stroke="#123793"></path><path d="M482.1 900L578.6 900L578.6 810Z" fill="#445bbe" stroke="#445bbe"></path><path d="M578.6 900L675 900L578.6 810Z" fill="#0f348a" stroke="#0f348a"></path></g></svg>